<svg width="186" height="31" viewBox="0 0 186 31" fill="none" xmlns="http://www.w3.org/2000/svg">
<path d="M174.082 16.8389H181.026C182.158 16.8389 183.067 17.1438 183.751 17.7535C184.448 18.3633 184.797 19.166 184.797 20.1615V21.4682C184.797 22.1153 184.61 22.6815 184.237 23.1669C183.876 23.6398 183.347 24.0006 182.65 24.2495V24.2869C183.048 24.5482 183.347 24.8469 183.546 25.1829C183.758 25.5189 183.963 25.9855 184.162 26.5829L185.207 29.9055H182.538L181.549 26.8069C181.387 26.2717 181.163 25.8735 180.877 25.6122C180.59 25.3509 180.236 25.2202 179.813 25.2202H176.658V29.9055H174.082V16.8389ZM180.541 22.9989C181.063 22.9989 181.474 22.862 181.773 22.5882C182.071 22.302 182.221 21.9349 182.221 21.4869V20.2735C182.221 19.9126 182.109 19.6264 181.885 19.4149C181.661 19.1909 181.362 19.0789 180.989 19.0789H176.658V22.9989H180.541Z" fill="#DE9C00"/>
<path d="M164.169 29.9055C163.634 29.9055 163.198 29.7437 162.862 29.4202C162.526 29.0966 162.358 28.6735 162.358 28.1509V16.8389H172.326V19.0789H164.934V22.1029H171.766V24.3429H164.934V27.6655H172.326V29.9055H164.169Z" fill="#DE9C00"/>
<path d="M151.06 29.9055C150.525 29.9055 150.089 29.7437 149.753 29.4202C149.417 29.0966 149.249 28.6735 149.249 28.1509V16.8389H155.484C156.479 16.8389 157.35 17.0255 158.097 17.3989C158.856 17.7722 159.441 18.3011 159.852 18.9855C160.275 19.67 160.486 20.4602 160.486 21.3562V25.0149C160.486 26.6202 160.069 27.8397 159.236 28.6735C158.402 29.4949 157.176 29.9055 155.558 29.9055H151.06ZM155.484 27.6282C156.28 27.6282 156.884 27.398 157.294 26.9375C157.705 26.4771 157.91 25.7989 157.91 24.9029V21.4682C157.91 20.7589 157.68 20.1926 157.22 19.7695C156.759 19.334 156.156 19.1162 155.409 19.1162H151.825V27.6282H155.484Z" fill="#DE9C00"/>
<path d="M135.855 16.8389H138.151L144.423 25.7242V16.8389H146.943V29.9055H144.647L138.375 21.0202V29.9055H135.855V16.8389Z" fill="#DE9C00"/>
<path d="M130.772 16.8389H133.348V29.9055H130.772V16.8389Z" fill="#DE9C00"/>
<path d="M119.322 16.8389H129.104V19.0789H121.898V22.5882H128.413V24.8282H121.898V29.9055H119.322V16.8389Z" fill="#DE9C00"/>
<path d="M102.648 29.9055C102.112 29.9055 101.677 29.7437 101.341 29.4202C101.005 29.0966 100.837 28.6735 100.837 28.1509V16.8389H107.072C108.067 16.8389 108.938 17.0255 109.685 17.3989C110.444 17.7722 111.029 18.3011 111.44 18.9855C111.863 19.67 112.074 20.4602 112.074 21.3562V25.0149C112.074 26.6202 111.657 27.8397 110.824 28.6735C109.99 29.4949 108.764 29.9055 107.146 29.9055H102.648ZM107.072 27.6282C107.868 27.6282 108.472 27.398 108.882 26.9375C109.293 26.4771 109.498 25.7989 109.498 24.9029V21.4682C109.498 20.7589 109.268 20.1926 108.808 19.7695C108.347 19.334 107.744 19.1162 106.997 19.1162H103.413V27.6282H107.072Z" fill="#001638"/>
<path d="M88.1846 16.8389H95.1286C96.261 16.8389 97.1695 17.1438 97.8539 17.7535C98.5508 18.3633 98.8992 19.166 98.8992 20.1615V21.4682C98.8992 22.1153 98.7126 22.6815 98.3392 23.1669C97.9783 23.6398 97.4495 24.0006 96.7526 24.2495V24.2869C97.1508 24.5482 97.4495 24.8469 97.6486 25.1829C97.8601 25.5189 98.0655 25.9855 98.2646 26.5829L99.3099 29.9055H96.6406L95.6512 26.8069C95.4895 26.2717 95.2655 25.8735 94.9792 25.6122C94.693 25.3509 94.3383 25.2202 93.9152 25.2202H90.7606V29.9055H88.1846V16.8389ZM94.6432 22.9989C95.1659 22.9989 95.5766 22.862 95.8752 22.5882C96.1739 22.302 96.3232 21.9349 96.3232 21.4869V20.2735C96.3232 19.9126 96.2112 19.6264 95.9872 19.4149C95.7632 19.1909 95.4646 19.0789 95.0912 19.0789H90.7606V22.9989H94.6432Z" fill="#001638"/>
<path d="M83.1325 26.8629H78.2418L77.0845 29.9055H74.3965L79.5111 16.8389H80.6685C81.4774 16.8389 82.0249 17.2122 82.3111 17.9589L86.9591 29.9055H84.2711L83.1325 26.8629ZM78.9325 24.6975H82.4418L80.7058 19.9935H80.6871L78.9325 24.6975Z" fill="#001638"/>
<path d="M67.4312 30.0535C66.473 30.0535 65.6268 29.8481 64.8926 29.4375C64.1708 29.0268 63.6108 28.4481 63.2126 27.7015C62.8143 26.9424 62.6152 26.0712 62.6152 25.0881V21.6535C62.6152 20.6704 62.8143 19.8055 63.2126 19.0588C63.6232 18.2997 64.1957 17.7148 64.9299 17.3041C65.6766 16.8935 66.5352 16.6881 67.5059 16.6881H69.4846C70.4179 16.6881 71.2392 16.8873 71.9486 17.2855C72.6579 17.6837 73.2054 18.2437 73.5912 18.9655C73.9894 19.6748 74.1886 20.5024 74.1886 21.4481H71.6499C71.6499 20.7015 71.4508 20.1041 71.0526 19.6561C70.6543 19.1957 70.1317 18.9655 69.4846 18.9655H67.5059C66.809 18.9655 66.249 19.2268 65.8259 19.7495C65.4028 20.2597 65.1912 20.9317 65.1912 21.7655V24.9761C65.1912 25.8099 65.3966 26.4881 65.8072 27.0108C66.2179 27.521 66.7592 27.7761 67.4312 27.7761H69.4472C70.1068 27.7761 70.6419 27.521 71.0526 27.0108C71.4757 26.5006 71.6872 25.8286 71.6872 24.9948H74.2259C74.2259 26.0028 74.0268 26.8926 73.6286 27.6641C73.2303 28.4232 72.6703 29.0144 71.9486 29.4375C71.2268 29.8481 70.393 30.0535 69.4472 30.0535H67.4312Z" fill="#001638"/>
<path d="M6.79785 6.85587C7.54346 6.82105 8.55855 6.84959 9.33097 6.8504L14.1219 6.85163L29.4289 6.85271C29.9095 7.21646 34.4703 11.178 34.6224 11.4127L34.5461 11.46L18.6926 11.5152L15.0813 11.5319C14.1573 11.5386 13.0081 11.5916 12.1185 11.4187C11.789 11.3547 10.8316 10.7446 10.5882 10.5239C10.0466 10.0328 7.02584 7.23798 6.79785 6.85587Z" fill="#001638"/>
<path d="M20 0.00390625C23.6431 0.0027776 27.2963 -0.0031881 30.9404 0.00390625C31.9411 0.00589572 33.1827 0.332184 34.043 0.868164C34.8881 1.39486 35.8303 2.44053 36.5332 3.17383L38.915 5.6709L46.6152 13.7461C45.8274 11.4176 44.6068 9.72806 42.8691 8.03027C44.8425 7.099 46.837 6.21213 48.8506 5.37109C46.4172 4.77012 45.424 4.13098 43.6543 2.41797L53.4785 2.41309L56.7324 2.41406C58.0286 2.41454 59.2224 2.33694 60.4756 2.69434C62.3182 3.21986 63.6737 4.27408 64.6318 5.90234C67.2237 5.97509 70.1756 7.16139 70.5889 10.1035C70.8005 11.6123 70.0789 12.7951 69.1992 13.9443C69.2024 13.8352 69.2041 13.7254 69.2041 13.6162C69.205 10.9105 66.7236 10.7016 64.624 10.6982C61.1251 10.6927 57.9672 12.3749 55.874 15.1514C54.7981 16.5785 53.8809 18.132 52.8867 19.6191C51.1547 22.1443 49.2599 24.9149 47.127 27.123C47.6429 26.7678 48.4477 26.012 48.918 25.5752C50.8896 23.7423 52.5188 21.754 54.1895 19.6592L54.2031 25.1104C54.2037 25.6322 54.1907 26.2232 54.2041 26.7363C54.3023 30.4931 51.6957 30.155 48.8965 30.1504L43.3672 30.1416L38.6836 30.1396C40.8026 28.0878 42.7353 25.3019 44.4297 22.875C47.8481 17.9782 50.7568 14.0785 55.7305 10.6396C50.9217 12.6193 46.8368 15.596 43.5586 19.4756C38.6967 25.2297 34.1519 29.6789 26.1992 30.0674C24.3196 30.1592 22.4491 30.132 20.4873 30.1523C18.7854 30.17 15.2332 29.777 14.8105 27.8037C14.6422 26.3367 14.7331 24.5566 14.7344 23.0449L14.7393 13.2969H36.8125C37.2514 13.5683 37.7179 13.9567 38.1455 14.2578C39.3149 15.0806 40.5149 16.0777 41.7031 16.8555C41.3044 16.3623 40.63 15.7033 40.1748 15.2363L37.5176 12.5264L29.7959 4.68945C24.1995 4.68736 18.6028 4.71938 13.0068 4.78613L8.9541 4.8125C8.16384 4.81868 5.9883 4.90856 5.36816 4.61035C3.47584 3.6998 1.50679 1.46563 0 0L20 0.00390625ZM55.5137 4.84375C56.3569 5.15253 57.7125 5.46236 58.6191 5.7334C59.2349 7.1745 60.219 7.52973 61.4111 6.43848L62.0059 5.89746C60.9971 5.33491 56.8069 4.89297 55.5137 4.84375Z" fill="#001638"/>
<rect x="17.1504" y="16.8616" width="5.39809" height="3.82339" rx="1" fill="#DE9C00"/>
<rect x="17.1523" y="23.955" width="3.10166" height="1.84742" rx="0.923708" fill="white"/>
<rect x="21.833" y="23.955" width="3.10166" height="1.84742" rx="0.923708" fill="white"/>
<rect x="26.5186" y="23.955" width="3.10166" height="1.84742" rx="0.923708" fill="white"/>
<rect x="31.1992" y="23.955" width="3.10166" height="1.84742" rx="0.923708" fill="white"/>
</svg>
