<svg width="186" height="31" viewBox="0 0 186 31" fill="none" xmlns="http://www.w3.org/2000/svg">
<path d="M174.081 16.8389H181.025C182.158 16.8389 183.066 17.1438 183.751 17.7535C184.448 18.3633 184.796 19.166 184.796 20.1615V21.4682C184.796 22.1153 184.609 22.6815 184.236 23.1669C183.875 23.6398 183.346 24.0006 182.649 24.2495V24.2869C183.047 24.5482 183.346 24.8469 183.545 25.1829C183.757 25.5189 183.962 25.9855 184.161 26.5829L185.207 29.9055H182.537L181.548 26.8069C181.386 26.2717 181.162 25.8735 180.876 25.6122C180.59 25.3509 180.235 25.2202 179.812 25.2202H176.657V29.9055H174.081V16.8389ZM180.54 22.9989C181.063 22.9989 181.473 22.862 181.772 22.5882C182.071 22.302 182.22 21.9349 182.22 21.4869V20.2735C182.22 19.9126 182.108 19.6264 181.884 19.4149C181.66 19.1909 181.361 19.0789 180.988 19.0789H176.657V22.9989H180.54Z" fill="#DE9C00"/>
<path d="M164.169 29.9055C163.634 29.9055 163.198 29.7437 162.862 29.4202C162.526 29.0966 162.358 28.6735 162.358 28.1509V16.8389H172.326V19.0789H164.934V22.1029H171.766V24.3429H164.934V27.6655H172.326V29.9055H164.169Z" fill="#DE9C00"/>
<path d="M151.06 29.9055C150.525 29.9055 150.089 29.7437 149.753 29.4202C149.417 29.0966 149.249 28.6735 149.249 28.1509V16.8389H155.484C156.479 16.8389 157.35 17.0255 158.097 17.3989C158.856 17.7722 159.441 18.3011 159.852 18.9855C160.275 19.67 160.486 20.4602 160.486 21.3562V25.0149C160.486 26.6202 160.07 27.8397 159.236 28.6735C158.402 29.4949 157.176 29.9055 155.558 29.9055H151.06ZM155.484 27.6282C156.28 27.6282 156.884 27.398 157.294 26.9375C157.705 26.4771 157.91 25.7989 157.91 24.9029V21.4682C157.91 20.7589 157.68 20.1926 157.22 19.7695C156.759 19.334 156.156 19.1162 155.409 19.1162H151.825V27.6282H155.484Z" fill="#DE9C00"/>
<path d="M135.855 16.8389H138.151L144.423 25.7242V16.8389H146.943V29.9055H144.647L138.375 21.0202V29.9055H135.855V16.8389Z" fill="#DE9C00"/>
<path d="M130.772 16.8389H133.348V29.9055H130.772V16.8389Z" fill="#DE9C00"/>
<path d="M119.321 16.8389H129.103V19.0789H121.897V22.5882H128.412V24.8282H121.897V29.9055H119.321V16.8389Z" fill="#DE9C00"/>
<path d="M102.647 29.9055C102.112 29.9055 101.677 29.7437 101.341 29.4202C101.005 29.0966 100.837 28.6735 100.837 28.1509V16.8389H107.071C108.067 16.8389 108.938 17.0255 109.685 17.3989C110.444 17.7722 111.029 18.3011 111.439 18.9855C111.862 19.67 112.074 20.4602 112.074 21.3562V25.0149C112.074 26.6202 111.657 27.8397 110.823 28.6735C109.989 29.4949 108.764 29.9055 107.146 29.9055H102.647ZM107.071 27.6282C107.868 27.6282 108.471 27.398 108.882 26.9375C109.293 26.4771 109.498 25.7989 109.498 24.9029V21.4682C109.498 20.7589 109.268 20.1926 108.807 19.7695C108.347 19.334 107.743 19.1162 106.997 19.1162H103.413V27.6282H107.071Z" fill="white"/>
<path d="M88.1838 16.8389H95.1278C96.2603 16.8389 97.1687 17.1438 97.8532 17.7535C98.5501 18.3633 98.8985 19.166 98.8985 20.1615V21.4682C98.8985 22.1153 98.7118 22.6815 98.3385 23.1669C97.9776 23.6398 97.4487 24.0006 96.7518 24.2495V24.2869C97.1501 24.5482 97.4487 24.8469 97.6478 25.1829C97.8594 25.5189 98.0647 25.9855 98.2638 26.5829L99.3092 29.9055H96.6398L95.6505 26.8069C95.4887 26.2717 95.2647 25.8735 94.9785 25.6122C94.6923 25.3509 94.3376 25.2202 93.9145 25.2202H90.7598V29.9055H88.1838V16.8389ZM94.6425 22.9989C95.1652 22.9989 95.5758 22.862 95.8745 22.5882C96.1732 22.302 96.3225 21.9349 96.3225 21.4869V20.2735C96.3225 19.9126 96.2105 19.6264 95.9865 19.4149C95.7625 19.1909 95.4638 19.0789 95.0905 19.0789H90.7598V22.9989H94.6425Z" fill="white"/>
<path d="M83.1325 26.8629H78.2419L77.0845 29.9055H74.3965L79.5112 16.8389H80.6685C81.4774 16.8389 82.025 17.2122 82.3112 17.9589L86.9592 29.9055H84.2712L83.1325 26.8629ZM78.9325 24.6975H82.4419L80.7059 19.9935H80.6872L78.9325 24.6975Z" fill="white"/>
<path d="M67.4307 30.0535C66.4725 30.0535 65.6263 29.8481 64.8921 29.4375C64.1703 29.0268 63.6103 28.4481 63.2121 27.7015C62.8139 26.9424 62.6147 26.0712 62.6147 25.0881V21.6535C62.6147 20.6704 62.8139 19.8055 63.2121 19.0588C63.6227 18.2997 64.1952 17.7148 64.9294 17.3041C65.6761 16.8935 66.5347 16.6881 67.5054 16.6881H69.4841C70.4174 16.6881 71.2387 16.8873 71.9481 17.2855C72.6574 17.6837 73.205 18.2437 73.5907 18.9655C73.989 19.6748 74.1881 20.5024 74.1881 21.4481H71.6494C71.6494 20.7015 71.4503 20.1041 71.0521 19.6561C70.6539 19.1957 70.1312 18.9655 69.4841 18.9655H67.5054C66.8085 18.9655 66.2485 19.2268 65.8254 19.7495C65.4023 20.2597 65.1907 20.9317 65.1907 21.7655V24.9761C65.1907 25.8099 65.3961 26.4881 65.8067 27.0108C66.2174 27.521 66.7587 27.7761 67.4307 27.7761H69.4467C70.1063 27.7761 70.6414 27.521 71.0521 27.0108C71.4752 26.5006 71.6867 25.8286 71.6867 24.9948H74.2254C74.2254 26.0028 74.0263 26.8926 73.6281 27.6641C73.2298 28.4232 72.6698 29.0144 71.9481 29.4375C71.2263 29.8481 70.3925 30.0535 69.4467 30.0535H67.4307Z" fill="white"/>
<path d="M6.79742 6.85587C7.54303 6.82105 8.55812 6.84959 9.33055 6.8504L14.1215 6.85163L29.4285 6.85271C29.909 7.21646 34.4699 11.178 34.622 11.4127L34.5457 11.46L18.6922 11.5152L15.0809 11.5319C14.1569 11.5386 13.0076 11.5916 12.118 11.4187C11.7886 11.3547 10.8312 10.7446 10.5878 10.5239C10.0462 10.0328 7.02541 7.23798 6.79742 6.85587Z" fill="white"/>
<path d="M20 0.00390625C23.6431 0.0027776 27.2963 -0.0031881 30.9404 0.00390625C31.9411 0.00589572 33.1827 0.332184 34.043 0.868164C34.8881 1.39486 35.8303 2.44053 36.5332 3.17383L38.915 5.6709L46.6152 13.7461C45.8274 11.4176 44.6068 9.72806 42.8691 8.03027C44.8425 7.099 46.837 6.21213 48.8506 5.37109C46.4172 4.77012 45.424 4.13098 43.6543 2.41797L53.4785 2.41309L56.7324 2.41406C58.0286 2.41454 59.2224 2.33694 60.4756 2.69434C62.3182 3.21986 63.6737 4.27408 64.6318 5.90234C67.2237 5.97509 70.1756 7.16139 70.5889 10.1035C70.8005 11.6123 70.0789 12.7951 69.1992 13.9443C69.2024 13.8352 69.2041 13.7254 69.2041 13.6162C69.205 10.9105 66.7236 10.7016 64.624 10.6982C61.1251 10.6927 57.9672 12.3749 55.874 15.1514C54.7981 16.5785 53.8809 18.132 52.8867 19.6191C51.1547 22.1443 49.2599 24.9149 47.127 27.123C47.6429 26.7678 48.4477 26.012 48.918 25.5752C50.8896 23.7423 52.5188 21.754 54.1895 19.6592L54.2031 25.1104C54.2037 25.6322 54.1907 26.2232 54.2041 26.7363C54.3023 30.4931 51.6957 30.155 48.8965 30.1504L43.3672 30.1416L38.6836 30.1396C40.8026 28.0878 42.7353 25.3019 44.4297 22.875C47.8481 17.9782 50.7568 14.0785 55.7305 10.6396C50.9217 12.6193 46.8368 15.596 43.5586 19.4756C38.6967 25.2297 34.1519 29.6789 26.1992 30.0674C24.3196 30.1592 22.4491 30.132 20.4873 30.1523C18.7854 30.17 15.2332 29.777 14.8105 27.8037C14.6422 26.3367 14.7331 24.5566 14.7344 23.0449L14.7393 13.2969H36.8125C37.2514 13.5683 37.7179 13.9567 38.1455 14.2578C39.3149 15.0806 40.5149 16.0777 41.7031 16.8555C41.3044 16.3623 40.63 15.7033 40.1748 15.2363L37.5176 12.5264L29.7959 4.68945C24.1995 4.68736 18.6028 4.71938 13.0068 4.78613L8.9541 4.8125C8.16384 4.81868 5.9883 4.90856 5.36816 4.61035C3.47584 3.6998 1.50679 1.46563 0 0L20 0.00390625ZM55.5137 4.84375C56.3569 5.15253 57.7125 5.46236 58.6191 5.7334C59.2349 7.1745 60.219 7.52973 61.4111 6.43848L62.0059 5.89746C60.9971 5.33491 56.8069 4.89297 55.5137 4.84375Z" fill="white"/>
<rect x="17.1501" y="16.8616" width="5.39809" height="3.82339" rx="1" fill="#DE9C00"/>
<rect x="17.1518" y="23.955" width="3.10166" height="1.84742" rx="0.923708" fill="#001638"/>
<rect x="21.8327" y="23.955" width="3.10166" height="1.84742" rx="0.923708" fill="#001638"/>
<rect x="26.5178" y="23.955" width="3.10166" height="1.84742" rx="0.923708" fill="#001638"/>
<rect x="31.1987" y="23.955" width="3.10166" height="1.84742" rx="0.923708" fill="#001638"/>
</svg>
