<svg width="68" height="68" viewBox="0 0 68 68" fill="none" xmlns="http://www.w3.org/2000/svg">
<g filter="url(#filter0_d_214_19590)">
<rect x="2" y="1" width="64" height="64" rx="16" fill="white" shape-rendering="crispEdges"/>
<path d="M32.0614 37.375C32.5614 37.875 33.2072 38.1198 33.9989 38.1094C34.7906 38.099 35.3739 37.8125 35.7489 37.25L42.7489 26.75L32.2489 33.75C31.6864 34.125 31.3895 34.6979 31.3583 35.4688C31.327 36.2396 31.5614 36.875 32.0614 37.375ZM33.9989 23C35.2281 23 36.4104 23.1719 37.5458 23.5156C38.6812 23.8594 39.7489 24.375 40.7489 25.0625L38.3739 26.5625C37.6864 26.2083 36.9729 25.9427 36.2333 25.7656C35.4937 25.5885 34.7489 25.5 33.9989 25.5C31.2281 25.5 28.8687 26.474 26.9208 28.4219C24.9729 30.3698 23.9989 32.7292 23.9989 35.5C23.9989 36.375 24.1187 37.2396 24.3583 38.0938C24.5979 38.9479 24.9364 39.75 25.3739 40.5H42.6239C43.1031 39.7083 43.452 38.8854 43.6708 38.0312C43.8895 37.1771 43.9989 36.2917 43.9989 35.375C43.9989 34.625 43.9104 33.8958 43.7333 33.1875C43.5562 32.4792 43.2906 31.7917 42.9364 31.125L44.4364 28.75C45.0614 29.7292 45.5562 30.7708 45.9208 31.875C46.2854 32.9792 46.4781 34.125 46.4989 35.3125C46.5197 36.5 46.3843 37.6354 46.0927 38.7188C45.801 39.8021 45.3739 40.8333 44.8114 41.8125C44.5822 42.1875 44.2697 42.4792 43.8739 42.6875C43.4781 42.8958 43.0614 43 42.6239 43H25.3739C24.9364 43 24.5197 42.8958 24.1239 42.6875C23.7281 42.4792 23.4156 42.1875 23.1864 41.8125C22.6447 40.875 22.2281 39.8802 21.9364 38.8281C21.6447 37.776 21.4989 36.6667 21.4989 35.5C21.4989 33.7708 21.827 32.151 22.4833 30.6406C23.1395 29.1302 24.0354 27.8073 25.1708 26.6719C26.3062 25.5365 27.6343 24.6406 29.1552 23.9844C30.676 23.3281 32.2906 23 33.9989 23Z" fill="#7F5700"/>
</g>
<defs>
<filter id="filter0_d_214_19590" x="0" y="0" width="68" height="68" filterUnits="userSpaceOnUse" color-interpolation-filters="sRGB">
<feFlood flood-opacity="0" result="BackgroundImageFix"/>
<feColorMatrix in="SourceAlpha" type="matrix" values="0 0 0 0 0 0 0 0 0 0 0 0 0 0 0 0 0 0 127 0" result="hardAlpha"/>
<feOffset dy="1"/>
<feGaussianBlur stdDeviation="1"/>
<feComposite in2="hardAlpha" operator="out"/>
<feColorMatrix type="matrix" values="0 0 0 0 0 0 0 0 0 0 0 0 0 0 0 0 0 0 0.05 0"/>
<feBlend mode="normal" in2="BackgroundImageFix" result="effect1_dropShadow_214_19590"/>
<feBlend mode="normal" in="SourceGraphic" in2="effect1_dropShadow_214_19590" result="shape"/>
</filter>
</defs>
</svg>
